<svg viewBox="256.5 243 553.4999999999999 661.5" fill="none" xmlns="http://www.w3.org/2000/svg" xmlns:xlink="http://www.w3.org/1999/xlink" overflow="visible" width="553.4999999999999px" height="661.5px"><g id="Master/Pau Barbaro/Ok"><g id="Frame" clip-path="url(#clip0_208_2098a098eca4-a143-4f65-92c9-d670d3db0285)"><g id="Group"><path id="Vector" d="M630.723 898.847C506.656 898.847 384.32 871.51 372.569 868.912C364.529 867.675 357.478 863.593 352.407 857.285C347.211 850.605 344.861 842.441 345.727 834.03L352.159 778.614C353.149 770.203 357.355 762.657 363.91 757.462C368.487 753.875 373.682 751.648 379.249 750.906C378.259 746.453 377.146 742.124 375.909 737.918C372.569 726.538 367.621 715.529 362.426 703.778C360.694 699.82 358.963 695.985 357.231 692.027C353.025 682.255 348.696 672.359 344.366 662.587C339.295 651.207 334.1 639.332 329.028 627.581C319.627 605.316 310.35 583.174 301.073 560.909C293.775 543.468 286.477 525.903 279.179 508.462L277.323 504.133C272.87 493.742 268.293 482.981 266.314 470.487C265.201 463.932 264.335 456.757 265.077 448.964C266.809 430.286 276.705 422.37 282.518 419.277C288.332 416.185 300.454 412.35 316.906 421.38C327.791 427.318 336.326 436.718 343.253 450.325C347.459 458.489 351.788 466.653 356.365 474.693C354.757 469.374 353.149 464.055 351.541 458.613C348.943 449.583 345.975 440.306 343.006 431.276C337.687 414.948 332.244 398.125 328.657 380.56L328.039 377.344C325.194 363.614 321.854 347.905 324.328 331.453C325.194 325.887 327.173 312.775 340.161 305.23C355.499 296.323 372.693 299.168 383.949 312.528C394.834 325.392 403.864 340.854 412.152 361.016C416.976 372.644 421.553 384.271 426.253 395.899C433.675 414.577 441.344 433.75 449.508 452.552C447.405 432.636 445.179 412.103 442.829 390.704C441.344 377.221 439.86 363.861 438.252 350.379C436.644 336.896 435.159 323.289 433.675 309.806C432.067 295.21 433.18 282.47 436.891 270.842C440.602 259.338 449.013 250.309 460.022 246.227C470.908 242.145 483.153 243.258 493.668 249.566C509.501 258.967 516.304 274.058 520.51 286.18C524.963 299.168 526.818 312.157 528.55 324.774C529.168 329.103 529.787 333.556 530.529 337.885C536.466 373.262 542.28 408.516 548.094 443.893C549.454 452.552 550.939 461.087 552.299 469.745C559.103 458.365 566.648 446.49 575.06 433.997C583.842 421.009 593.49 409.753 603.757 400.599C621.693 384.642 654.101 378.829 678.717 399.362C695.045 412.969 709.764 429.42 722.629 448.47L727.577 456.262C734.627 464.921 740.194 474.075 745.265 483.104C746.75 482.857 748.234 482.733 749.842 482.981C756.398 483.723 761.84 488.423 763.572 494.856C764.438 498.195 765.18 501.535 765.799 504.875C767.283 512.297 768.644 518.605 771.86 523.429C775.694 529.243 781.632 532.583 791.899 538.149L795.981 540.376C801.794 543.468 805.01 549.9 804.144 556.332C803.279 562.888 798.578 568.207 792.27 569.815C788.559 570.805 784.972 571.423 781.508 572.166C773.468 573.774 768.273 574.887 764.809 577.732C758.748 582.803 754.542 591.71 749.223 602.842L747.987 605.44C745.76 610.14 741.431 613.356 736.606 614.222C735.246 618.923 733.761 623.252 732.525 626.344C732.525 626.468 732.401 626.592 732.401 626.715C727.7 640.569 722.258 654.3 717.063 667.535C712.981 678.049 708.651 688.811 704.94 699.449C694.426 728.888 679.706 757.71 660.039 787.52C661.028 788.386 662.018 789.376 662.884 790.365C668.821 797.169 671.666 806.322 670.677 815.352L664.244 870.768C662.389 886.848 648.411 898.599 630.97 898.599C631.217 898.847 630.97 898.847 630.723 898.847ZM645.937 499.309C641.113 510.318 635.547 520.461 630.475 529.614C628.744 532.83 628.125 535.799 629.981 543.344C633.568 557.94 636.908 573.031 639.753 586.019C645.443 573.526 651.875 561.404 659.296 549.653C663.255 543.344 668.079 536.417 675.006 530.48C663.75 520.461 654.225 509.575 645.937 499.309ZM715.702 566.104L715.949 566.352L715.702 566.104ZM409.802 560.909C409.925 560.909 409.802 560.909 409.802 560.909V560.909Z" fill="#C3B0FF"/><g id="Group_2"><g id="Group_3"><path id="Vector_2" d="M717.805 621.767C709.517 646.259 699.126 669.885 690.344 694.253C678.593 727.156 662.018 757.214 642.474 785.788C627.012 808.425 610.808 822.278 582.976 829.205C561.7 834.524 539.435 834.772 517.417 834.895C485.751 835.019 452.229 834.524 422.79 821.413C417.471 819.062 405.72 814.733 402.503 809.661C398.916 803.848 400.895 793.457 400.401 786.407C399.287 768.471 396.566 750.659 391.495 733.465C386.67 717.137 379.001 701.551 372.198 685.842C362.921 664.319 353.149 643.043 343.995 621.52C327.173 581.937 310.721 542.107 294.022 502.401C289.322 491.268 284.126 480.259 282.147 468.137C281.281 462.323 280.416 456.509 281.034 450.696C282.642 433.626 294.146 427.441 309.36 435.729C318.514 440.8 324.699 449.088 329.152 457.87C346.964 493 368.734 525.656 389.021 559.301C391.371 563.259 394.216 566.846 396.937 570.557C398.05 572.042 399.658 572.536 401.39 571.794C403.617 570.805 404.235 568.949 403.493 566.723C401.514 561.156 399.287 555.837 397.556 550.147C388.031 518.11 376.28 486.815 367.126 454.53C359.828 428.802 349.933 403.815 344.614 377.591C341.645 363.243 338.182 348.894 340.408 334.05C341.274 328.237 342.635 322.547 348.448 319.207C356.736 314.383 365.395 315.125 372.074 323.042C383.207 336.153 391.123 351.368 397.679 367.325C412.647 403.691 426.253 440.429 442.705 476.177C450.374 492.876 458.29 509.451 464.97 526.645C466.083 529.614 467.32 531.84 471.402 532.088C474.742 527.511 473.134 522.316 472.639 517.739C468.31 474.94 463.733 432.141 459.033 389.343C456.064 362.377 452.724 335.411 449.879 308.445C448.642 297.56 449.013 286.799 452.477 276.161C457.177 261.688 472.639 255.751 485.875 263.544C496.636 269.976 501.831 280.366 505.666 291.623C511.109 307.58 512.222 324.278 515.067 340.73C524.097 393.919 532.632 447.109 541.414 500.298C542.033 503.885 541.414 508.091 545.867 509.822C549.207 510.07 549.949 507.472 551.186 505.369C562.319 483.846 575.183 463.189 588.666 443.15C596.088 432.141 604.746 421.627 614.766 412.721C627.383 401.465 650.885 396.764 668.945 411.855C684.778 425.091 698.261 440.429 709.764 457.623C708.404 459.726 707.043 461.705 704.816 463.189C694.797 469.992 690.963 479.641 692.942 491.392C694.426 500.422 697.642 509.328 703.58 516.502C706.425 519.966 709.764 522.934 713.475 525.284C716.815 527.511 722.134 531.098 726.34 529.49C727.577 528.995 728.69 528.129 730.05 527.635C731.906 526.892 733.885 526.769 735.74 527.264C735.864 527.264 736.112 527.387 736.112 527.511C736.235 527.635 736.235 527.882 736.112 528.006C734.998 535.18 727.205 537.654 720.897 537.901C713.97 538.149 707.414 535.304 701.848 531.469C683.293 518.976 668.574 502.524 654.72 485.083C650.638 480.012 647.174 474.074 640.247 471.724C635.299 474.693 636.536 480.012 635.052 483.97C630.104 497.329 623.301 509.822 616.498 522.316C611.797 530.851 612.416 538.644 614.518 547.55C617.982 562.022 621.322 576.495 624.538 591.091C626.146 598.389 627.012 621.644 635.547 624.86C641.484 627.086 644.329 618.799 645.69 614.717C652.74 594.925 661.894 576.247 672.903 558.435C677.356 551.261 682.304 544.705 689.478 540.004C691.828 538.396 694.179 536.17 697.395 538.273C703.332 542.354 710.135 544.086 717.186 544.705C720.773 545.076 724.36 545.199 727.948 545.323C732.772 545.571 733.267 546.808 733.143 551.755C733.019 554.724 733.019 557.816 732.895 560.785C732.772 564.125 724.608 559.301 723.247 558.064C722.258 557.198 721.392 556.208 720.278 555.466C717.805 553.735 714.712 553.487 711.743 553.24C706.672 552.992 705.311 553.611 702.714 557.569C701.229 560.043 699.621 562.393 698.384 564.991C695.787 570.433 693.931 576.247 693.189 582.308C691.705 594.183 694.302 606.8 703.703 614.84C704.94 615.459 717.31 623.004 717.805 621.767Z" fill="#F9DD61"/><g id="Group_4"><path id="Vector_3" d="M734.009 494.979C728.319 484.836 722.505 474.693 714.959 465.787C713.228 463.065 711.496 460.22 709.764 457.499C708.404 459.602 707.043 461.581 704.816 463.065C694.797 469.869 690.962 479.517 692.942 491.268C696.034 509.823 705.435 523.676 723.742 530.232C726.834 531.346 731.411 532.459 734.503 530.356C737.719 528.253 737.719 522.687 737.843 519.347C738.338 511.431 737.967 501.782 734.009 494.979Z" fill="#FF94E1"/><path id="Vector_4" d="M728.566 551.509C725.721 550.025 722.257 549.283 719.041 549.283C713.846 549.406 709.022 549.901 705.435 554.107C689.725 572.29 683.912 612.12 717.681 621.645C719.412 619.171 728.937 584.66 732.029 569.94C733.39 564.126 735.245 555.22 728.566 551.509Z" fill="#FF94E1"/></g></g><g id="Group_5"><g id="Group_6"><path id="Vector_5" d="M643.216 612.614C643.711 610.758 644.33 608.903 644.948 606.924C646.309 602.842 640.495 600.12 637.032 601.11C633.197 602.099 631.342 606.676 630.352 610.016C628.249 617.19 629.115 622.757 620.333 625.107C566.896 638.837 531.643 674.956 504.43 720.724C501.956 724.806 499.605 729.012 497.255 733.217C495.647 736.186 495.029 739.402 498.245 741.381C502.574 744.102 503.069 739.649 504.553 737.299C515.191 719.24 525.582 701.18 539.93 685.594C563.556 659.989 590.522 639.827 625.033 632.529C638.021 629.436 640.371 622.509 643.216 612.614Z" fill="#C3B0FF"/><path id="Vector_6" d="M500.471 744.351C499.358 744.351 498.121 743.98 496.884 743.114C493.173 740.763 492.555 736.558 495.152 731.857C497.502 727.652 499.853 723.446 502.327 719.364C534.24 665.804 571.473 635.127 619.59 622.757C625.28 621.273 625.899 618.552 626.888 613.604C627.136 612.243 627.507 610.759 628.002 609.275C628.62 607.048 630.723 600.245 636.289 598.76C639.382 597.895 643.34 599.132 645.567 601.358C647.175 603.09 647.793 605.316 647.051 607.543C646.556 609.151 646.185 610.635 645.69 611.996L645.319 613.233C642.598 622.51 640 631.292 625.28 634.385C594.975 640.817 568.256 657.516 541.291 686.832C527.808 701.552 517.541 718.869 507.769 735.568L506.285 738.166C506.037 738.537 505.79 739.032 505.666 739.526C504.924 741.258 503.935 743.361 501.708 743.98C501.337 744.351 500.966 744.351 500.471 744.351ZM638.516 603.09C638.145 603.09 637.897 603.09 637.526 603.213C635.423 603.708 633.692 606.182 632.455 610.635C632.084 611.996 631.713 613.357 631.465 614.717C630.228 620.036 629.115 625.108 620.827 627.211C573.947 639.209 537.58 669.267 506.285 721.714C503.811 725.796 501.461 730.002 499.11 734.084C497.008 737.795 498.616 738.784 499.234 739.279C500.1 739.774 500.347 739.774 500.347 739.774C500.595 739.65 501.09 738.413 501.461 737.795C501.708 737.176 502.079 736.558 502.327 735.939L503.811 733.342C513.83 716.395 524.097 698.83 537.951 683.74C565.535 653.681 592.996 636.611 624.291 629.932C635.918 627.458 638.021 621.768 640.99 611.872L641.361 610.635C641.732 609.151 642.227 607.667 642.721 606.059C642.845 605.687 642.969 605.069 642.227 604.45C641.485 603.708 639.876 603.09 638.516 603.09Z" fill="#C3B0FF"/></g><g id="Group_7"><path id="Vector_7" d="M438.128 593.194C451.982 597.895 462.62 605.687 472.516 613.975C485.751 625.231 497.75 637.848 508.14 651.95C509.625 654.053 511.109 656.279 512.222 658.629C513.583 661.474 514.572 665.061 511.604 667.041C507.893 669.391 506.408 665.556 504.924 662.959C497.008 649.105 485.875 638.343 474.495 627.458C464.475 617.81 453.343 609.646 440.726 603.461C437.633 601.977 434.417 599.997 435.283 595.668C435.902 593.689 437.633 593.194 438.128 593.194Z" fill="#C3B0FF"/><path id="Vector_8" d="M509.5 670.009C509.129 670.009 508.635 670.009 508.263 669.885C505.79 669.267 504.429 666.793 503.439 664.937L502.945 664.072C495.275 650.465 483.895 639.58 473.01 629.066C462.62 619.046 451.734 611.253 439.86 605.563C437.262 604.326 431.819 601.605 433.18 595.297C433.922 592.204 436.644 590.844 438.375 591.091C438.499 591.091 438.623 591.091 438.746 591.215C453.714 596.286 464.846 604.821 473.876 612.367C487.606 623.994 499.728 636.858 509.872 650.836C511.232 652.692 512.964 655.042 514.201 657.763C517.664 664.937 514.325 668.03 512.717 669.019C511.727 669.638 510.614 670.009 509.5 670.009ZM438.004 595.544C437.88 595.668 437.757 595.791 437.757 596.039C437.262 598.265 438.252 599.502 441.962 601.234C454.208 607.171 465.465 615.212 476.226 625.602C487.359 636.364 498.986 647.496 507.027 661.721L507.521 662.587C508.016 663.453 508.882 665.185 509.5 665.309C509.624 665.309 509.872 665.309 510.49 664.937C511.974 663.948 511.232 661.474 510.243 659.495C509.129 657.145 507.521 654.918 506.284 653.186C496.389 639.58 484.514 626.963 471.031 615.583C462.496 608.532 451.982 600.492 438.004 595.544Z" fill="#C3B0FF"/></g></g></g><path id="Vector_9" d="M687.623 530.233C724.361 533.325 733.019 522.687 750.089 495.969C752.192 509.081 751.821 521.822 758.13 533.325C764.685 545.571 775.571 551.756 788.188 560.291C774.334 562.518 761.346 561.404 750.46 568.95C739.575 576.495 732.772 588.617 724.237 602.719C722.752 585.649 723.866 570.063 716.32 557.322C709.393 545.571 697.89 539.386 687.623 530.233Z" fill="#7E40D6"/><path id="Vector_10" d="M535.477 846.275C534.116 846.522 532.755 846.027 531.395 846.398C530.529 846.646 530.158 846.027 530.529 845.162C530.653 844.914 530.653 844.79 530.9 844.667C531.766 843.677 532.013 842.44 532.632 841.327C533.003 840.585 533.003 839.966 532.013 839.595C530.653 841.203 530.405 843.553 528.55 844.914C527.065 844.172 526.447 842.564 525.457 841.327C525.086 840.832 524.839 839.966 524.097 840.461C523.355 840.956 523.973 841.574 524.22 842.069C524.592 842.564 524.963 842.935 525.21 843.43C525.705 844.419 526.447 845.162 526.818 846.398C524.715 847.264 522.489 846.275 520.633 847.264C520.881 848.13 521.499 848.378 522.118 848.254C522.983 848.254 523.849 848.378 524.839 848.13C525.581 847.883 526.2 847.883 526.694 848.625C527.065 849.243 526.694 849.738 526.447 850.109C525.705 851.223 525.705 852.46 524.963 853.573C524.592 854.068 524.839 854.562 525.457 854.686C525.952 854.81 526.2 854.562 526.447 854.068C526.818 853.202 527.189 852.46 527.437 851.594C527.808 850.728 528.055 849.738 529.045 849.615C530.034 849.491 530.405 850.604 530.9 851.346C531.395 852.212 532.013 852.954 532.508 853.697C532.755 854.068 533.25 854.068 533.621 853.82C533.869 853.573 533.869 853.202 533.745 852.831C533.498 852.46 533.25 852.089 533.127 851.841C532.508 850.975 531.89 850.109 531.395 849.243C530.776 848.254 531.024 847.883 532.137 847.759C533.003 847.635 533.992 847.759 534.858 847.759C535.724 847.635 536.714 847.759 537.332 846.893C536.59 846.522 536.095 846.151 535.477 846.275Z" fill="#FFCA22"/></g><g id="Group_8"><g id="Group_9"><path id="Vector_11" d="M497.625 858.15C493.296 852.955 488.719 847.512 483.772 842.565C475.608 834.524 462.62 825 447.776 825.495C440.602 825.742 434.541 828.463 431.201 832.916C428.232 836.875 427.366 841.946 426.5 847.265C425.882 850.605 425.387 854.068 424.15 857.284C423.532 859.016 422.789 860.624 421.924 862.232C446.044 866.562 477.958 871.633 513.83 875.715C513.211 875.22 512.716 874.602 512.098 874.107C506.779 869.283 502.079 863.593 497.625 858.15Z" fill="#8056E8"/><path id="Vector_12" d="M391.247 802.858C388.649 814.609 377.022 821.413 367.497 826.855C365.765 827.845 364.157 828.834 362.426 829.948L361.807 835.761C360.818 844.296 367.002 852.089 375.537 853.079C375.537 853.079 391.618 856.79 418.212 861.614C419.326 859.882 420.192 858.15 420.934 856.171C422.047 853.202 422.542 849.863 423.037 846.647C424.026 841.08 424.892 835.39 428.479 830.814C432.438 825.495 439.488 822.278 447.652 822.031C463.733 821.536 477.463 831.556 486.245 840.091C491.317 845.039 495.894 850.605 500.347 855.924C504.8 861.243 509.376 866.809 514.448 871.757C516.056 873.365 517.911 874.973 519.643 876.457C554.649 880.168 593.119 882.89 631.588 882.89C640.247 882.89 647.916 877.694 648.905 869.159L651.503 847.265C648.04 849.121 644.452 851.1 640.989 852.708C619.342 862.851 593.984 864.335 571.348 857.037C566.524 855.429 555.144 850.729 554.897 840.957C554.773 833.535 561.329 828.34 565.163 825.866C580.749 816.094 599.551 815.846 617.858 815.599C622.806 815.475 627.877 815.475 632.825 815.228C640.37 814.857 647.916 813.867 655.461 812.383C655.585 804.343 649.771 796.673 641.607 796.55C504.8 794.447 385.68 766.863 385.68 766.863C380.856 766.244 376.28 767.976 373.063 771.068C382.464 777.253 394.339 788.509 391.247 802.858Z" fill="#8056E8"/><path id="Vector_13" d="M387.907 802.117C390.629 789.376 379.001 779.109 370.714 773.543C369.353 775.522 368.487 777.872 368.24 780.47L363.044 825.619C364.034 825 365.024 824.505 365.889 823.887C374.672 818.815 385.681 812.507 387.907 802.117Z" fill="#8056E8"/><path id="Vector_14" d="M632.949 818.444C628.001 818.692 622.806 818.815 617.858 818.815C600.046 819.063 581.739 819.31 566.895 828.587C563.555 830.69 558.113 835.019 558.236 840.709C558.36 848.379 568.132 852.337 572.338 853.698C594.232 860.748 618.6 859.264 639.505 849.616C643.587 847.76 647.792 845.41 651.751 843.183L651.874 843.06L655.09 815.723C647.669 817.084 640.371 818.073 632.949 818.444Z" fill="#8056E8"/><path id="Vector_15" d="M514.325 871.757C509.253 866.809 504.676 861.366 500.223 855.924C495.77 850.605 491.193 845.039 486.122 840.091C477.463 831.556 463.733 821.536 447.529 822.031C439.365 822.278 432.314 825.495 428.356 830.813C424.892 835.514 423.903 841.204 422.913 846.647C422.418 849.863 421.8 853.079 420.81 856.171C420.192 858.027 419.202 859.882 418.089 861.614C419.326 861.861 420.439 862.109 421.676 862.232C422.542 860.624 423.408 859.016 423.903 857.284C425.016 854.068 425.634 850.605 426.253 847.265C427.119 841.946 427.985 836.875 430.953 832.916C434.293 828.463 440.354 825.742 447.529 825.495C462.372 825 475.36 834.524 483.524 842.565C488.472 847.389 493.049 852.831 497.378 858.15C501.955 863.593 506.532 869.159 511.727 874.231C512.345 874.726 512.84 875.344 513.459 875.839C515.438 876.086 517.417 876.334 519.396 876.457C517.788 874.973 515.933 873.365 514.325 871.757Z" fill="#C3B0FF"/><path id="Vector_16" d="M367.497 826.856C376.898 821.413 388.649 814.734 391.247 802.859C394.339 788.387 382.465 777.254 372.94 770.822C372.074 771.564 371.332 772.554 370.713 773.419C379.001 778.986 390.628 789.376 387.907 801.993C385.681 812.26 374.672 818.692 365.889 823.764C364.9 824.258 364.034 824.877 363.044 825.495L362.549 829.825C364.158 828.835 365.889 827.846 367.497 826.856Z" fill="#C3B0FF"/><path id="Vector_17" d="M639.381 849.614C618.6 859.386 594.108 860.871 572.214 853.696C568.008 852.335 558.36 848.377 558.113 840.708C557.989 835.018 563.555 830.689 566.772 828.586C581.491 819.309 599.922 819.061 617.734 818.814C622.682 818.69 627.877 818.69 632.825 818.443C640.247 818.072 647.545 817.082 654.967 815.721L655.214 813.742C655.214 813.248 655.338 812.753 655.338 812.134C647.916 813.619 640.247 814.485 632.701 814.979C627.754 815.227 622.682 815.35 617.734 815.35C599.427 815.598 580.626 815.969 565.04 825.617C561.082 828.091 554.526 833.286 554.773 840.708C555.02 850.48 566.4 855.304 571.225 856.789C593.861 864.21 619.219 862.602 640.865 852.459C644.329 850.851 647.916 848.872 651.38 847.017L651.874 842.811L651.751 842.935C647.669 845.409 643.463 847.635 639.381 849.614Z" fill="#C3B0FF"/></g></g><path id="Vector_18" d="M387.908 839.843C389.274 839.843 390.382 838.736 390.382 837.369C390.382 836.003 389.274 834.896 387.908 834.896C386.541 834.896 385.434 836.003 385.434 837.369C385.434 838.736 386.541 839.843 387.908 839.843Z" fill="#FFCA22"/><path id="Vector_19" d="M595.716 835.019C600.541 834.772 601.53 833.164 603.262 829.329C603.757 831.061 604.004 832.669 604.994 834.153C606.107 835.638 607.591 836.256 609.447 837.122C607.715 837.617 605.983 837.74 604.623 838.977C603.262 840.214 602.643 841.822 601.778 843.925C601.283 841.699 601.159 839.596 599.922 838.111C598.933 836.627 597.324 836.009 595.716 835.019Z" fill="#FFCA22"/><path id="Vector_20" d="M432.562 817.084C431.077 814.981 431.077 812.26 429.346 810.157C428.232 808.796 428.975 807.683 430.706 807.683C431.077 807.683 431.448 807.683 431.82 807.806C434.046 808.549 436.396 808.054 438.747 808.425C440.355 808.672 441.22 808.054 441.468 806.198C437.757 804.961 433.551 806.198 429.84 804.096C430.088 800.879 432.314 798.777 433.675 796.179C434.17 795.189 435.53 794.2 434.046 793.21C432.809 792.344 432.067 793.705 431.325 794.695C430.83 795.561 430.335 796.55 429.717 797.292C428.48 798.9 427.614 800.756 425.758 802.116C422.913 799.148 422.913 794.571 419.821 791.973C418.46 793.21 418.584 794.324 419.079 795.437C419.697 796.921 420.192 798.653 421.305 799.89C422.171 800.879 422.666 802.116 421.8 803.353C421.058 804.467 419.821 804.096 418.955 803.972C416.605 803.477 414.378 804.467 412.028 803.972C411.039 803.725 410.296 804.467 410.42 805.58C410.544 806.446 411.162 806.817 412.028 806.817C413.76 806.817 415.368 806.941 417.1 806.817C418.831 806.693 420.811 806.57 421.553 808.178C422.419 809.909 420.811 811.146 419.821 812.507C418.831 813.991 417.842 815.476 416.852 817.084C416.358 817.826 416.729 818.568 417.471 819.063C418.089 819.434 418.708 819.063 419.203 818.568C419.697 817.95 420.068 817.331 420.563 816.713C421.677 815.105 422.666 813.496 423.779 811.888C425.016 810.28 425.882 810.28 426.872 812.26C427.614 813.744 428.109 815.352 428.851 816.836C429.593 818.197 430.088 819.929 432.067 820.423C433.057 819.31 433.304 818.197 432.562 817.084Z" fill="#FF94E1"/><path id="Vector_21" d="M492.555 807.559C493.853 807.559 494.905 806.507 494.905 805.209C494.905 803.911 493.853 802.859 492.555 802.859C491.257 802.859 490.204 803.911 490.204 805.209C490.204 806.507 491.257 807.559 492.555 807.559Z" fill="#FFCA22"/></g></g><defs><clipPath id="clip0_208_2098a098eca4-a143-4f65-92c9-d670d3db0285"><rect width="539.809" height="664" fill="white" transform="translate(264.954 244)"/></clipPath></defs></svg>